Coordinates
version=1
nRows=17
nColumns=38
inDegrees=no

Units are S.I. units (second, meters, Newtons, ...)
If the header above contains a line with 'inDegrees', this indicates whether rotational values are in degrees (yes) or radians (no).

endheader
time	pelvis_tilt	pelvis_list	pelvis_rotation	pelvis_tx	pelvis_ty	pelvis_tz	hip_flexion_r	hip_adduction_r	hip_rotation_r	knee_angle_r	ankle_angle_r	subtalar_angle_r	mtp_angle_r	hip_flexion_l	hip_adduction_l	hip_rotation_l	knee_angle_l	ankle_angle_l	subtalar_angle_l	mtp_angle_l	lumbar_extension	lumbar_bending	lumbar_rotation	arm_flex_r	arm_add_r	arm_rot_r	elbow_flex_r	pro_sup_r	wrist_flex_r	wrist_dev_r	arm_flex_l	arm_add_l	arm_rot_l	elbow_flex_l	pro_sup_l	wrist_flex_l	wrist_dev_l
10	-0.0804847	1.0235	1.65957	0.699576	0.0775426	0.716095	1.52509	-0.563713	-0.27788	1.68121	0.45793	0	0	1.43998	-0.474447	-0.384623	1.67668	0.492064	0	0	-0.570757	-0.0133892	0.0235551	1.16525	-0.412593	0.0928917	1.07527	0.864363	0	0	1.22116	-0.441792	0.239986	0.960136	0.801002	0	0
10.01	-0.0812341	1.02467	1.65986	0.699282	0.076653	0.716435	1.52536	-0.563283	-0.277049	1.68	0.455468	0	0	1.43934	-0.473871	-0.385498	1.67555	0.49025	0	0	-0.571345	-0.0133329	0.0234937	1.16972	-0.41328	0.0968291	1.0707	0.861788	0	0	1.22346	-0.440665	0.24009	0.958423	0.801968	0	0
10.02	-0.081637	1.02564	1.65984	0.69878	0.0754712	0.716773	1.52545	-0.562668	-0.276574	1.67852	0.453193	0	0	1.43885	-0.473369	-0.386379	1.67408	0.487113	0	0	-0.572053	-0.0128483	0.0235928	1.17477	-0.414254	0.101502	1.06599	0.859004	0	0	1.22532	-0.439348	0.239417	0.957045	0.802048	0	0
10.03	-0.0818881	1.02653	1.65954	0.698287	0.0743349	0.717125	1.52533	-0.561947	-0.276343	1.67687	0.45103	0	0	1.43813	-0.4731	-0.387564	1.67247	0.485601	0	0	-0.572469	-0.0123997	0.0239123	1.17907	-0.415287	0.105776	1.06158	0.856067	0	0	1.22704	-0.43767	0.238613	0.955118	0.801901	0	0
10.04	-0.0818991	1.02759	1.65905	0.698278	0.0738987	0.717694	1.52485	-0.561411	-0.276328	1.67501	0.448895	0	0	1.43701	-0.472854	-0.388976	1.6707	0.485734	0	0	-0.572599	-0.0118467	0.0244231	1.18228	-0.416316	0.108978	1.05768	0.853134	0	0	1.22873	-0.435575	0.238129	0.952662	0.801952	0	0
10.05	-0.0822922	1.02851	1.65928	0.697915	0.0730398	0.718238	1.5242	-0.56127	-0.276166	1.67291	0.446844	0	0	1.4353	-0.47221	-0.391015	1.66827	0.485117	0	0	-0.572619	-0.0112894	0.0250317	1.18474	-0.417283	0.110568	1.05447	0.850049	0	0	1.23027	-0.433157	0.238083	0.950331	0.802157	0	0
10.06	-0.0829469	1.02935	1.66016	0.697196	0.0717507	0.718754	1.52328	-0.561677	-0.276138	1.67069	0.444837	0	0	1.43296	-0.471238	-0.393728	1.66515	0.483703	0	0	-0.572713	-0.0106837	0.0255797	1.1868	-0.418184	0.11095	1.05162	0.846762	0	0	1.23146	-0.430783	0.238244	0.948783	0.802257	0	0
10.07	-0.0833356	1.03033	1.66075	0.696787	0.0709203	0.71946	1.52206	-0.562339	-0.276666	1.66831	0.442804	0	0	1.4304	-0.470534	-0.396533	1.66205	0.483426	0	0	-0.572764	-0.0100611	0.026056	1.18878	-0.419199	0.111706	1.04832	0.843603	0	0	1.23226	-0.428826	0.238426	0.947927	0.802407	0	0
10.08	-0.0835698	1.03116	1.66113	0.696595	0.0703114	0.720301	1.52071	-0.562982	-0.277591	1.66561	0.440996	0	0	1.42793	-0.470119	-0.399301	1.65892	0.482763	0	0	-0.572631	-0.00955802	0.0263655	1.19077	-0.42028	0.113099	1.04454	0.840594	0	0	1.2324	-0.427247	0.238162	0.948016	0.802529	0	0
10.09	-0.0839351	1.03181	1.66151	0.696257	0.0695644	0.721174	1.51917	-0.563485	-0.278878	1.66257	0.439231	0	0	1.42545	-0.470024	-0.402201	1.65569	0.481676	0	0	-0.572334	-0.00932331	0.0265389	1.19268	-0.42143	0.115215	1.04051	0.837658	0	0	1.23202	-0.425838	0.237513	0.948357	0.80264	0	0
10.1	-0.0845284	1.03228	1.66194	0.695783	0.0685699	0.722059	1.51754	-0.563752	-0.280154	1.65908	0.437354	0	0	1.42289	-0.470007	-0.405207	1.65221	0.480524	0	0	-0.571859	-0.00931565	0.0268142	1.19438	-0.422877	0.117691	1.03664	0.835185	0	0	1.23163	-0.424313	0.237238	0.948092	0.80244	0	0
10.11	-0.0850398	1.03289	1.66212	0.695606	0.0681161	0.723184	1.51551	-0.56392	-0.2817	1.65521	0.435461	0	0	1.42006	-0.469905	-0.408096	1.64833	0.479369	0	0	-0.571349	-0.00927248	0.0274793	1.19557	-0.424502	0.119664	1.03308	0.833123	0	0	1.23155	-0.422563	0.23813	0.94698	0.801315	0	0
10.12	-0.0855197	1.0336	1.66228	0.695249	0.0674662	0.724323	1.51291	-0.564176	-0.283616	1.65116	0.433622	0	0	1.41672	-0.469581	-0.4109	1.64405	0.478581	0	0	-0.570902	-0.00912776	0.028499	1.1959	-0.426011	0.12035	1.03015	0.83166	0	0	1.23179	-0.4203	0.239615	0.944633	0.79938	0	0
10.13	-0.0859195	1.03436	1.66254	0.694805	0.0666134	0.725483	1.50974	-0.564545	-0.285821	1.64674	0.431866	0	0	1.41295	-0.468915	-0.413728	1.63947	0.478114	0	0	-0.570608	-0.00880793	0.0296976	1.19549	-0.427312	0.119709	1.02794	0.830945	0	0	1.23213	-0.417717	0.241396	0.941846	0.797658	0	0
10.14	-0.0857457	1.03537	1.66252	0.694533	0.0663137	0.726935	1.50596	-0.565006	-0.288492	1.64202	0.430176	0	0	1.4091	-0.46782	-0.416323	1.63458	0.477438	0	0	-0.570604	-0.00789028	0.0309148	1.19499	-0.428498	0.118639	1.02607	0.830309	0	0	1.23202	-0.414923	0.242053	0.93986	0.796356	0	0
10.15	-0.0854244	1.03623	1.66254	0.694165	0.0658066	0.72841	1.502	-0.565528	-0.291369	1.63714	0.428434	0	0	1.40515	-0.466475	-0.419035	1.62933	0.476549	0	0	-0.570588	-0.00679074	0.0317593	1.19412	-0.429317	0.117488	1.02457	0.829507	0	0	1.23124	-0.412046	0.241236	0.938152	0.795859	0	0
10.16	-0.0853505	1.03683	1.66264	0.693854	0.0653243	0.72997	1.49827	-0.565863	-0.294076	1.63202	0.426376	0	0	1.40114	-0.465097	-0.422063	1.62372	0.475606	0	0	-0.570269	-0.00584003	0.0322612	1.19298	-0.429884	0.116806	1.02337	0.828689	0	0	1.2298	-0.409531	0.239376	0.936207	0.797329	0	0
